<?xml version="1.0" encoding="utf-8"?>
<!-- Generator: Adobe Illustrator 22.1.0, SVG Export Plug-In . SVG Version: 6.00 Build 0)  -->
<svg version="1.1" id="Layer_1" xmlns="http://www.w3.org/2000/svg" xmlns:xlink="http://www.w3.org/1999/xlink" x="0px" y="0px"
	 viewBox="0 0 448 512" style="enable-background:new 0 0 448 512;" xml:space="preserve">
<style type="text/css">
	.st0{fill:#FFFFFF;}
</style>
<path class="st0" d="M192,64c0-31,32-23,32-64c12,0,32,29.5,32,56s-14.2,40-32,40S192,81.8,192,64z M352,96c17.8,0,32-13.5,32-40
	S364,0,352,0c0,41-32,33-32,64C320,81.8,334.2,96,352,96z M448,272v240H0V272c0-26.5,21.5-48,48-48h24V112h48v112h80V112h48v112h80
	V112h48v112h24C426.5,224,448,245.5,448,272z M48,278v56.8c8.4,7,15.3,13.2,26.8,13.2c25.4,0,30.1-32,74.8-32c44,0,49.8,32,74.5,32
	c25.6,0,30.1-32,74.8-32c44.5,0,49.3,32,74.8,32c11.3,0,18.1-6.2,26.5-13.2V278c0-3.3-2.7-6-6-6l-340,0C50.7,272,48,274.7,48,278z
	 M400,464v-80.9c-7,2.9-15.5,4.9-26.5,4.9c-44.5,0-49.4-32-74.8-32c-25.1,0-30.3,32-74.8,32c-44,0-49.8-32-74.5-32
	c-25.6,0-30.1,32-74.8,32c-11.1,0-19.7-2-26.8-4.9V464H400z M96,96c17.8,0,32-13.5,32-40S108,0,96,0c0,41-32,33-32,64
	C64,81.8,78.2,96,96,96z"/>
</svg>
